<svg width="38" height="38" viewBox="0 0 38 38" fill="none" xmlns="http://www.w3.org/2000/svg">
<g id="Apartment Icon">
<mask id="mask0_6_313" style="mask-type:alpha" maskUnits="userSpaceOnUse" x="0" y="0" width="38" height="38">
<path id="Clip 2" fill-rule="evenodd" clip-rule="evenodd" d="M0 0H37.5V37.5H0V0Z" fill="white"/>
</mask>
<g mask="url(#mask0_6_313)">
<path id="Fill 1" fill-rule="evenodd" clip-rule="evenodd" d="M22.424 5.89831H7.29635C6.7153 5.89831 6.24444 5.42734 6.24444 4.84638C6.24444 4.26541 6.7153 3.79445 7.29635 3.79445H22.424C23.005 3.79445 23.4759 4.26541 23.4759 4.84638C23.4759 5.42734 23.005 5.89831 22.424 5.89831ZM22.424 9.47907H7.29635C6.7153 9.47907 6.24444 9.0081 6.24444 8.42714C6.24444 7.84617 6.7153 7.37521 7.29635 7.37521H22.424C23.005 7.37521 23.4759 7.84617 23.4759 8.42714C23.4759 9.0081 23.005 9.47907 22.424 9.47907ZM22.424 13.0597H7.29635C6.7153 13.0597 6.24444 12.5888 6.24444 12.0078C6.24444 11.4269 6.7153 10.9559 7.29635 10.9559H22.424C23.005 10.9559 23.4759 11.4269 23.4759 12.0078C23.4759 12.5888 23.005 13.0597 22.424 13.0597ZM29.4104 14.2827C28.8295 14.2827 28.3585 13.8117 28.3585 13.2307V11.4004C28.3585 10.8194 28.8295 10.3485 29.4104 10.3485C29.9914 10.3485 30.4623 10.8194 30.4623 11.4004V13.2307C30.4623 13.8117 29.9914 14.2827 29.4104 14.2827ZM22.424 16.6405H7.29635C6.7153 16.6405 6.24444 16.1694 6.24444 15.5886C6.24444 15.0076 6.7153 14.5366 7.29635 14.5366H22.424C23.005 14.5366 23.4759 15.0076 23.4759 15.5886C23.4759 16.1694 23.005 16.6405 22.424 16.6405ZM22.424 20.2212H7.29635C6.7153 20.2212 6.24444 19.7503 6.24444 19.1693C6.24444 18.5884 6.7153 18.1174 7.29635 18.1174H22.424C23.005 18.1174 23.4759 18.5884 23.4759 19.1693C23.4759 19.7503 23.005 20.2212 22.424 20.2212ZM29.4104 20.4537C28.8295 20.4537 28.3585 19.9827 28.3585 19.4017V17.5715C28.3585 16.9905 28.8295 16.5196 29.4104 16.5196C29.9914 16.5196 30.4623 16.9905 30.4623 17.5715V19.4017C30.4623 19.9827 29.9914 20.4537 29.4104 20.4537ZM22.424 23.802H7.29635C6.7153 23.802 6.24444 23.331 6.24444 22.7501C6.24444 22.1691 6.7153 21.6982 7.29635 21.6982H22.424C23.005 21.6982 23.4759 22.1691 23.4759 22.7501C23.4759 23.331 23.005 23.802 22.424 23.802ZM29.4104 26.6248C28.8295 26.6248 28.3585 26.1538 28.3585 25.5728V23.7424C28.3585 23.1614 28.8295 22.6905 29.4104 22.6905C29.9914 22.6905 30.4623 23.1614 30.4623 23.7424V25.5728C30.4623 26.1538 29.9914 26.6248 29.4104 26.6248ZM22.424 27.3827H7.29635C6.7153 27.3827 6.24444 26.9117 6.24444 26.3307C6.24444 25.7498 6.7153 25.2788 7.29635 25.2788H22.424C23.005 25.2788 23.4759 25.7498 23.4759 26.3307C23.4759 26.9117 23.005 27.3827 22.424 27.3827ZM22.424 30.9633H7.29635C6.7153 30.9633 6.24444 30.4924 6.24444 29.9114C6.24444 29.3305 6.7153 28.8595 7.29635 28.8595H22.424C23.005 28.8595 23.4759 29.3305 23.4759 29.9114C23.4759 30.4924 23.005 30.9633 22.424 30.9633ZM29.4104 32.7957C28.8295 32.7957 28.3585 32.3247 28.3585 31.7438V29.9134C28.3585 29.3324 28.8295 28.8615 29.4104 28.8615C29.9914 28.8615 30.4623 29.3324 30.4623 29.9134V31.7438C30.4623 32.3247 29.9914 32.7957 29.4104 32.7957ZM9.99796 34.5955H7.20298C6.62203 34.5955 6.15107 34.1245 6.15107 33.5436C6.15107 32.9626 6.62203 32.4916 7.20298 32.4916H9.99796C10.5789 32.4916 11.0499 32.9626 11.0499 33.5436C11.0499 34.1245 10.5789 34.5955 9.99796 34.5955ZM22.424 34.5955H19.6291C19.0481 34.5955 18.5772 34.1245 18.5772 33.5436C18.5772 32.9626 19.0481 32.4916 19.6291 32.4916H22.424C23.005 32.4916 23.4759 32.9626 23.4759 33.5436C23.4759 34.1245 23.005 34.5955 22.424 34.5955ZM13.9227 35.3961H15.7981V33.8402H13.9227V35.3961ZM17.9019 35.3961H24.6025V2.10385H5.11829V35.3961H11.8189V32.7883C11.8189 32.2073 12.2898 31.7363 12.8708 31.7363H16.85C17.431 31.7363 17.9019 32.2073 17.9019 32.7883V35.3961ZM26.7063 35.3961H32.3816V8.00967H26.7063V35.3961ZM36.4481 37.5H1.05191C0.470955 37.5 0 37.029 0 36.4481C0 35.8672 0.470955 35.3961 1.05191 35.3961H3.01447V1.05193C3.01447 0.470963 3.48543 0 4.06638 0H25.6544C26.2353 0 26.7063 0.470963 26.7063 1.05193V5.90582H33.4336C34.0146 5.90582 34.4855 6.37678 34.4855 6.95775V35.3961H36.4481C37.029 35.3961 37.5 35.8672 37.5 36.4481C37.5 37.029 37.029 37.5 36.4481 37.5Z" fill="#17479D"/>
</g>
</g>
</svg>
