<svg width="26" height="26" viewBox="0 0 26 26" fill="none" xmlns="http://www.w3.org/2000/svg">
<mask id="mask0_63_7" style="mask-type:alpha" maskUnits="userSpaceOnUse" x="0" y="0" width="26" height="26">
<path fill-rule="evenodd" clip-rule="evenodd" d="M0 0H26V26H0V0Z" fill="white"/>
</mask>
<g mask="url(#mask0_63_7)">
<path fill-rule="evenodd" clip-rule="evenodd" d="M21.6522 21.0326C20.7312 22.3999 19.407 23.0931 17.7163 23.0931H8.28376C6.59315 23.0931 5.269 22.3999 4.34803 21.0326C3.56815 19.8748 3.1073 18.2358 3.02757 16.3726H22.9727C22.8929 18.2358 22.432 19.8748 21.6522 21.0326ZM9.9326 4.48788C10.3311 4.34567 10.7226 4.53735 10.9207 4.66439C11.1757 4.82804 11.4048 5.06688 11.5858 5.35057L7.46232 6.82404C7.41525 6.49262 7.43386 6.16516 7.52213 5.87894C7.59061 5.65672 7.76502 5.2626 8.16357 5.12011L9.9326 4.48788ZM25.2644 14.9281H3.09509C3.11437 14.8636 3.12518 14.7955 3.12518 14.7248V3.78573C3.12518 2.49477 4.19488 1.44444 5.50983 1.44444C6.78867 1.44444 7.83527 2.438 7.89184 3.68015L7.66035 3.76284C6.91887 4.02775 6.36974 4.63066 6.11398 5.46063C5.93457 6.04274 5.91787 6.68906 6.05925 7.32541L5.86277 7.39568C5.481 7.53203 5.28415 7.94652 5.42311 8.32128C5.53183 8.61464 5.81385 8.79671 6.11435 8.79671C6.19791 8.79671 6.28287 8.78263 6.36585 8.75295L13.6313 6.15664C14.013 6.02028 14.2099 5.6058 14.0709 5.23104C13.932 4.85621 13.5098 4.66287 13.1281 4.79937L12.9883 4.84935C12.68 4.27265 12.2441 3.78804 11.7255 3.45532C10.9863 2.98089 10.1708 2.86548 9.42938 3.13061L9.31426 3.17177C9.01451 1.3754 7.42304 0 5.50983 0C3.38367 0 1.65399 1.6983 1.65399 3.78573V14.7248C1.65399 14.7955 1.6648 14.8636 1.68407 14.9281H0.735596C0.329326 14.9281 0 15.2515 0 15.6504C0 16.0492 0.329326 16.3726 0.735596 16.3726H1.55483C1.63611 18.5434 2.17251 20.4213 3.12091 21.8293C3.5366 22.4465 4.02437 22.962 4.57555 23.3722C4.54628 23.4056 4.51928 23.4416 4.49596 23.481L3.6465 24.9144C3.44222 25.2591 3.56124 25.7014 3.91241 25.9019C4.02878 25.9684 4.15597 26 4.28161 26C4.53495 26 4.78152 25.8714 4.91812 25.6409L5.76759 24.2075C5.7923 24.1658 5.81209 24.1226 5.82746 24.0786C6.57144 24.3822 7.3945 24.5375 8.28376 24.5375H17.7163C18.6056 24.5375 19.4288 24.3822 20.1728 24.0785C20.1883 24.1225 20.2081 24.1658 20.2328 24.2075L21.0822 25.6409C21.2188 25.8714 21.4653 26 21.7188 26C21.8443 26 21.9717 25.9684 22.088 25.9019C22.4391 25.7014 22.5581 25.2591 22.3539 24.9144L21.5044 23.481C21.481 23.4416 21.454 23.4055 21.4247 23.3721C21.9758 22.962 22.4636 22.4465 22.8793 21.8294C23.8277 20.4214 24.3641 18.5435 24.4454 16.3726H25.2644C25.6707 16.3726 26 16.0492 26 15.6504C26 15.2515 25.6707 14.9281 25.2644 14.9281Z" fill="#17479D"/>
</g>
</svg>
