<svg width="26" height="25" viewBox="0 0 26 25" fill="none" xmlns="http://www.w3.org/2000/svg">
<mask id="mask0_6_294" style="mask-type:alpha" maskUnits="userSpaceOnUse" x="0" y="0" width="26" height="25">
<path fill-rule="evenodd" clip-rule="evenodd" d="M0 0H26V25H0V0Z" fill="white"/>
</mask>
<g mask="url(#mask0_6_294)">
<path fill-rule="evenodd" clip-rule="evenodd" d="M22.5064 23.5664V21.5606C22.5064 21.1647 22.1831 20.8438 21.7842 20.8438H4.21677C3.81787 20.8438 3.49452 21.1647 3.49452 21.5606V23.5664H1.47945V19.2497H24.5213V23.5664H22.5064ZM3.91148 10.9898C9.84966 10.0559 18.3825 10.2053 22.1228 10.9641L24.294 17.8161H1.71115L3.91148 10.9898ZM19.7968 9.18213C18.0967 9.01017 16.0616 8.91268 13.8584 8.9038C13.8521 8.9038 13.8459 8.9038 13.8395 8.9038V7.947C13.8395 7.36179 14.3033 6.86741 14.8522 6.86741H18.7844C19.3427 6.86741 19.7968 7.35169 19.7968 7.947V9.18213ZM12.1605 8.91426C10.0777 8.94946 8.03999 9.06658 6.20324 9.25353V7.947C6.20324 7.36179 6.66693 6.86741 7.21576 6.86741H11.148C11.6968 6.86741 12.1605 7.36179 12.1605 7.947V8.91426ZM4.9544 1.43362H21.0462C21.5067 1.43362 21.8956 1.85059 21.8956 2.34412V9.46212C21.6871 9.42578 21.4687 9.39108 21.2413 9.35804V7.947C21.2413 6.56126 20.1392 5.43379 18.7844 5.43379H14.8522C14.1137 5.43379 13.4509 5.76918 13 6.29833C12.5493 5.76918 11.8864 5.43379 11.148 5.43379H7.21576C5.86097 5.43379 4.75875 6.56126 4.75875 7.947V9.39976C4.75875 9.40678 4.75961 9.41352 4.75983 9.42047C4.53752 9.44943 4.31897 9.47939 4.10511 9.51058V2.34412C4.10511 1.84206 4.4861 1.43362 4.9544 1.43362ZM25.9672 18.3179L23.3756 10.1388C23.3542 10.0713 23.3223 10.009 23.2834 9.95206C23.3199 9.8664 23.3401 9.77214 23.3401 9.67329V2.34412C23.3401 1.05156 22.311 0 21.0462 0H4.9544C3.6896 0 2.66061 1.05156 2.66061 2.34412V9.67329C2.66061 9.78784 2.68835 9.89579 2.73659 9.99184C2.70994 10.0369 2.68669 10.0844 2.67022 10.1354L0.0339398 18.3145C-0.0161842 18.4699 -0.00982843 18.6354 0.0466514 18.7847C0.0394289 18.8254 0.034951 18.867 0.034951 18.9098V24.2832C0.034951 24.679 0.358302 25 0.7572 25H4.21677C4.61567 25 4.93902 24.679 4.93902 24.2832V22.2774H21.0619V24.2832C21.0619 24.679 21.3853 25 21.7842 25H25.2435C25.6424 25 25.9658 24.679 25.9658 24.2832V18.9098C25.9658 18.8665 25.9613 18.8244 25.9539 18.7832C26.0094 18.6354 26.016 18.4719 25.9672 18.3179Z" fill="#17479D"/>
</g>
</svg>
