<svg width="21" height="21" viewBox="0 0 21 21" fill="none" xmlns="http://www.w3.org/2000/svg">
<mask id="mask0_6_298" style="mask-type:alpha" maskUnits="userSpaceOnUse" x="0" y="0" width="21" height="21">
<path fill-rule="evenodd" clip-rule="evenodd" d="M0 0H21V21H0V0Z" fill="white"/>
</mask>
<g mask="url(#mask0_6_298)">
<path fill-rule="evenodd" clip-rule="evenodd" d="M20.2348 6.31624C20.6573 6.31624 21 5.97363 21 5.55098V0.765262C21 0.342608 20.6573 0 20.2348 0H15.4938C15.0712 0 14.7286 0.342608 14.7286 0.765262C14.7286 1.18792 15.0712 1.53052 15.4938 1.53052H18.2888L10.5517 9.26831L2.83667 1.55272H5.55053C5.97315 1.55272 6.31573 1.21003 6.31573 0.787454C6.31573 0.3648 5.97315 0.0221926 5.55053 0.0221926H0.7652C0.34258 0.0221926 0 0.3648 0 0.787454V5.52886C0 5.95144 0.34258 6.29412 0.7652 6.29412C1.18782 6.29412 1.5304 5.95144 1.5304 5.52886V2.4108L9.46951 10.3505L1.5304 18.2904V15.449C1.5304 15.0264 1.18774 14.6838 0.7652 14.6838C0.342657 14.6838 0 15.0264 0 15.449V20.2347C0 20.6573 0.342657 21 0.7652 21H5.50623C5.92877 21 6.27143 20.6573 6.27143 20.2347C6.27143 19.8121 5.92877 19.4695 5.50623 19.4695H2.51567L10.5517 11.4328L18.5655 19.4473H15.4495C15.0268 19.4473 14.6843 19.79 14.6843 20.2125C14.6843 20.6352 15.0268 20.9778 15.4495 20.9778H20.2348C20.6574 20.9778 21 20.6352 21 20.2125V15.4711C21 15.0486 20.6574 14.7059 20.2348 14.7059C19.8122 14.7059 19.4696 15.0486 19.4696 15.4711V18.187L11.6338 10.3505L19.4696 2.51419V5.55098C19.4696 5.97363 19.8123 6.31624 20.2348 6.31624Z" fill="#17479D"/>
</g>
</svg>
